<?xml version="1.0" encoding="UTF-8" standalone="no"?>
<svg
   xmlns="http://www.w3.org/2000/svg"
   id="svg4"
   version="1.1"
   viewBox="0 0 448 512"
   role="img"
   class="svg-inline--fa fa-share-alt fa-w-14"
   data-icon="share-alt"
   data-prefix="fas"
   focusable="false"
   aria-hidden="true">
  <defs
     id="defs8" />
  <g
     id="layer1">
    <path
    	class="fa-primary"
       id="path2"
       d="m 352,320 c -22.608,0 -43.387,7.819 -59.79,20.895 L 189.724,276.841 a 96.551,96.551 0 0 0 0,-41.683 L 292.21,171.104 C 308.613,184.181 329.392,192 352,192 c 53.019,0 96,-42.981 96,-96 0,-53.019 -42.981,-96 -96,-96 -53.019,0 -96,42.981 -96,96 0,7.158 0.79,14.13 2.276,20.841 L 155.79,180.895 C 139.387,167.819 118.608,160 96,160 42.981,160 0,202.981 0,256 c 0,53.019 42.981,96 96,96 22.608,0 43.387,-7.819 59.79,-20.895 l 102.486,64.054 A 96.301,96.301 0 0 0 256,416 c 0,53.019 42.981,96 96,96 53.019,0 96,-42.981 96,-96 0,-53.019 -42.981,-96 -96,-96 z"
       fill="currentColor" />
    <path class="fa-secondary"
       d="m 404.17883,416.52704 a 48.48941,48.48941 0 0 1 -48.48941,48.48941 48.48941,48.48941 0 0 1 -48.48941,-48.48941 48.48941,48.48941 0 0 1 48.48941,-48.48941 48.48941,48.48941 0 0 1 48.48941,48.48941"
       fill="currentColor" 
       id="path54" />
    <path class="fa-secondary"
       d="M 145.05883,254.38589 A 48.48941,48.48941 0 0 1 96.56942,302.87531 48.48941,48.48941 0 0 1 48.080009,254.38589 48.48941,48.48941 0 0 1 96.56942,205.89648 48.48941,48.48941 0 0 1 145.05883,254.38589"
       fill="currentColor"
       id="path54-2" />
    <path class="fa-secondary"
       d="M 400.86588,92.160004 A 48.48941,48.48941 0 0 1 352.37646,140.64941 48.48941,48.48941 0 0 1 303.88705,92.160004 48.48941,48.48941 0 0 1 352.37646,43.670593 48.48941,48.48941 0 0 1 400.86588,92.160004"
       fill="currentColor"
       id="path54-5" />
  </g>
</svg>
