<?xml version="1.0" encoding="UTF-8" standalone="no"?>
<svg
   xmlns:dc="http://purl.org/dc/elements/1.1/"
   xmlns:cc="http://creativecommons.org/ns#"
   xmlns:rdf="http://www.w3.org/1999/02/22-rdf-syntax-ns#"
   xmlns:svg="http://www.w3.org/2000/svg"
   xmlns="http://www.w3.org/2000/svg"
   xmlns:sodipodi="http://sodipodi.sourceforge.net/DTD/sodipodi-0.dtd"
   xmlns:inkscape="http://www.inkscape.org/namespaces/inkscape"
   inkscape:version="1.0.1 (3bc2e813f5, 2020-09-07)"
   sodipodi:docname="Fandex.svg"
   xml:space="preserve"
   style="enable-background:new 0 0 142 37;"
   viewBox="0 0 142 37"
   y="0px"
   x="0px"
   id="Layer_1"
   version="1.1"><metadata
   id="metadata39"><rdf:RDF><cc:Work
       rdf:about=""><dc:format>image/svg+xml</dc:format><dc:type
         rdf:resource="http://purl.org/dc/dcmitype/StillImage" /><dc:title /></cc:Work></rdf:RDF></metadata><defs
   id="defs37">
	
	
</defs><sodipodi:namedview
   inkscape:current-layer="Layer_1"
   inkscape:window-maximized="1"
   inkscape:window-y="-8"
   inkscape:window-x="-8"
   inkscape:cy="33.712579"
   inkscape:cx="77.042192"
   inkscape:zoom="5.6568543"
   showgrid="false"
   id="namedview35"
   inkscape:window-height="987"
   inkscape:window-width="1680"
   inkscape:pageshadow="2"
   inkscape:pageopacity="0"
   guidetolerance="10"
   gridtolerance="10"
   objecttolerance="10"
   borderopacity="1"
   bordercolor="#666666"
   pagecolor="#ffffff"
   inkscape:document-rotation="0" />
<style
   id="style2"
   type="text/css">
	.st0{fill:#313131;}
	.st1{fill:#219E9A;}
</style>

<style
   type="text/css"
   id="style905">
	.st0{fill:#313131;}
	.st1{fill:#219E9A;}
</style><style
   type="text/css"
   id="style1227">
	.st0{fill:#313131;}
	.st1{fill:#219E9A;}
</style><g
   id="g337"
   transform="translate(0.30007993,3.7474749)"><path
     style="fill:#313131;fill-opacity:1;stroke:#ffffff;stroke-width:0.122227;stroke-miterlimit:4;stroke-dasharray:none;stroke-opacity:1"
     d="m 19.576807,27.303665 c -0.2995,-0.02317 -0.62987,-0.126098 -0.92194,-0.287392 -0.19238,-0.106161 -0.33404,-0.205149 -0.55878,-0.390227 -0.0735,-0.06034 -0.17358,-0.139871 -0.22386,-0.176773 -0.54466,-0.403738 -1.08346,-0.478737 -3.840759,-0.534585 -0.60543,-0.01223 -2.8089,-0.04665 -5.0836804,-0.07943 -0.84424,-0.01224 -1.54163,-0.02449 -1.54967,-0.02754 -0.0131,-0.0043 0.33098,-0.117965 1.85753,-0.610851 0.13947,-0.04512 0.32486,-0.102587 0.41143,-0.127845 1.8495304,-0.536839 4.3530604,-0.653966 6.4481794,-0.301646 0.57824,0.09725 1.10895,0.226616 1.56139,0.380653 0.29645,0.100918 0.35285,0.123649 0.86292,0.347817 0.20419,0.08973 0.44633,0.19601 0.53766,0.236234 0.0918,0.04022 0.25884,0.1139 0.37252,0.163831 l 0.20594,0.09077 0.17227,-0.0602 c 0.0949,-0.03323 0.53005,-0.185386 0.96711,-0.33833 0.43723,-0.152943 0.85819,-0.297359 0.93598,-0.320926 1.6118,-0.488678 3.98963,-0.679722 6.22348,-0.500011 0.93896,0.0755 1.81556,0.222768 2.51688,0.422758 0.12286,0.03498 0.5175,0.161861 1.46021,0.469384 0.0918,0.02973 0.22736,0.0742 0.30213,0.09842 0.0927,0.03017 0.13073,0.04605 0.12068,0.04988 -0.009,0.0035 -0.34104,0.0096 -0.7391,0.01487 -0.39788,0.0043 -1.0814,0.01442 -1.51841,0.02142 -0.43723,0.0074 -1.30937,0.01968 -1.93859,0.02885 -2.9256,0.04285 -3.7301,0.06 -4.45551,0.09616 -1.0953,0.05453 -1.56882,0.145467 -1.94152,0.372827 -0.0997,0.06108 -0.2055,0.139213 -0.37164,0.275672 -0.16222,0.133268 -0.2396,0.191944 -0.35372,0.268153 -0.4695,0.313713 -0.96672,0.456036 -1.46044,0.417947 z M 3.6468176,25.939075 c -0.0949,-0.01182 -0.21643,-0.04469 -0.2842,-0.07739 -0.0656,-0.03148 -0.1338,-0.08019 -0.14691,-0.104408 -0.0586,-0.110096 -0.11718,-1.908663 -0.15041,-4.651647 -0.0219,-1.923939 -0.0262,-2.906955 -0.0306,-8.996245 l -0.004,-6.4877286 0.83494,0.0024 0.83493,0.0024 0.004,6.4107306 c 0.002,3.525892 0.009,6.511798 0.009,6.635342 0.002,0.12356 0.009,0.518559 0.0131,0.877779 0.035,2.73291 0.12067,4.367665 0.23916,4.57131 0.0219,0.03847 0.0634,0.04902 0.16177,0.04285 0.36116,-0.02231 1.20698,-0.288834 2.2067,-0.695239 0.35722,-0.145292 0.50317,-0.201608 0.73219,-0.282801 1.06365,-0.377111 2.2060904,-0.635203 3.3322204,-0.752836 0.5221,-0.05453 0.77726,-0.06708 1.36455,-0.06708 0.59048,0 0.82479,0.01223 1.273,0.06708 1.075229,0.131082 1.935309,0.426737 2.516869,0.865222 0.20375,0.153599 0.25184,0.228673 0.17226,0.268941 -0.0695,0.03497 -0.11324,0.03892 -0.48869,0.03804 -0.3712,-6.34e-4 -0.50312,-0.0074 -1.339539,-0.06152 -0.58051,-0.03804 -0.66957,-0.04197 -1.1232,-0.04722 -2.13709,-0.02535 -4.2490004,0.354201 -6.1612304,1.107748 -0.40444,0.159284 -0.66139,0.274274 -1.13973,0.509618 -0.44719,0.220014 -0.66979,0.320404 -0.97349,0.439051 -0.50972,0.199112 -0.93335,0.31721 -1.34496,0.374878 -0.10931,0.01531 -0.42411,0.0223 -0.51174,0.01181 z m 31.6616594,-0.08316 c -0.34497,-0.05299 -0.82347,-0.203575 -1.27924,-0.402558 -0.0595,-0.0258 -0.30082,-0.143542 -0.53666,-0.261244 -0.61278,-0.306105 -0.98508,-0.468133 -1.49345,-0.64992 -1.36669,-0.488714 -2.79364,-0.72666 -4.69677,-0.783193 -0.40269,-0.01181 -1.50215,-0.0061 -2.08003,0.01223 -1.29941,0.04022 -2.1242,0.03454 -2.42269,-0.01574 -0.0835,-0.01398 -0.16003,-0.04067 -0.18233,-0.06335 -0.0551,-0.05527 0.0262,-0.145466 0.26059,-0.283413 0.51969,-0.307547 1.70594,-0.7021 2.75621,-0.916797 0.77346,-0.158101 1.22088,-0.187484 1.90532,-0.125179 1.13194,0.103043 2.56414,0.453316 3.91352,0.957211 0.36814,0.137553 0.64508,0.250925 1.05424,0.43194 0.87831,0.388522 1.59882,0.637061 1.90768,0.657948 0.0835,0.0061 0.11412,-0.0035 0.1268,-0.03628 0.0874,-0.227754 0.16615,-2.238951 0.20725,-5.277228 0.0219,-1.540496 0.0219,-2.884157 0.0219,-8.035733 l 4e-5,-5.4772916 0.035,0.0043 c 0.0455,0.0061 1.47919,0.170871 1.4885,0.170871 0.004,0 0.004,4.5106616 0.004,10.0236866 l -0.002,10.023671 -0.33273,0.03061 c -0.3782,0.03454 -0.50889,0.03804 -0.65934,0.01442 z m -15.01159,-11.732508 1.7e-4,-9.8370596 0.82405,-0.287042 c 0.45315,-0.157884 0.82759,-0.288309 0.83192,-0.28984 0.004,-0.0012 0.009,0.446661 0.009,1.177304 1.3e-4,1.471061 0.009,1.995797 0.0459,2.540434 0.0262,0.413969 0.0643,0.659224 0.10318,0.694438 0.0131,0.01181 0.0175,0.01181 0.0512,8.4e-5 0.13817,-0.0487 0.47868,-0.274012 1.00611,-0.665582 0.26759,-0.198808 0.40531,-0.295742 0.55988,-0.393988 0.28813,-0.183375 0.51741,-0.299766 0.63179,-0.320534 0.0914,-0.01661 0.317,0.118576 0.59717,0.357437 0.0525,0.04469 0.20769,0.194305 0.34498,0.332206 0.13729,0.137859 0.28726,0.284243 0.33273,0.325255 0.27021,0.242182 0.51265,0.400242 0.56831,0.370423 0.0726,-0.03892 0.13991,-0.477639 0.18058,-1.17399 0.0306,-0.515673 0.0306,-0.613334 0.035,-2.356684 l 0.004,-1.75348 0.75448,7.9e-5 c 0.75077,8.7e-5 0.9818,0.0044 1.29114,0.02973 1.10816,0.08661 2.29677,0.376542 3.82729,0.933608 0.20069,0.07297 1.1076,0.407324 1.29587,0.477674 l 0.0686,0.02536 v 9.3923986 c 0,5.165798 -0.004,9.392385 -0.009,9.392385 -0.004,0 -0.41494,-0.166891 -0.91316,-0.370859 -0.49831,-0.203968 -0.96973,-0.394513 -1.04751,-0.423412 -1.00773,-0.37449 -2.47709,-0.654969 -3.94377,-0.752741 -0.46037,-0.03061 -0.65467,-0.03673 -1.13986,-0.03673 -0.47121,-1.3e-4 -0.6726,0.0061 -1.01508,0.03279 -0.5158,0.03979 -0.98127,0.113933 -1.33123,0.212011 -0.5336,0.149489 -1.40216,0.554738 -2.15493,1.005512 -0.19457,0.116654 -0.37952,0.238596 -1.21481,0.800764 -0.31568,0.212625 -0.57876,0.389399 -0.58444,0.39294 -0.009,0.0043 -0.009,-1.977614 -0.009,-9.830621 z m -1.55182,9.414693 c -0.44584,-0.351227 -0.63621,-0.498556 -0.78627,-0.607715 -1.06269,-0.77304 -2.12756,-1.212334 -3.402959,-1.403815 -0.63027,-0.09461 -1.17515,-0.129681 -2.01349,-0.129552 -2.35523,3.11e-4 -3.3781304,0.211184 -5.9031804,1.216859 -0.36333,0.144681 -0.404,0.159109 -0.45082,0.159503 -0.0608,4.76e-4 -0.0844,-0.01311 -0.12549,-0.07364 -0.0853,-0.125484 -0.1386,-0.486094 -0.16877,-1.136504 -0.0455,-0.961609 -0.0498,-3.167274 -0.0175,-7.122077 0.004,-0.505665 0.0219,-2.971148 0.0393,-5.4788686 0.0175,-2.507701 0.035,-4.624482 0.0394,-4.703958 l 0.004,-0.144504 0.66144,-0.2323 c 1.61032,-0.565601 1.63506,-0.573957 2.03014,-0.683785 2.1277004,-0.591577 4.5811304,-0.663356 6.8349994,-0.199945 0.80136,0.164749 1.63555,0.420572 2.47989,0.760505 0.59082,0.237853 1.03719,0.472703 1.08905,0.572973 0.0219,0.0487 0.0393,0.372039 0.0551,1.278013 0.0131,0.762198 0.0175,5.0701526 0.009,6.8059376 -0.009,1.837235 -0.0831,11.3073 -0.0861,11.333949 -0.002,0.01574 -0.0455,-0.01398 -0.29382,-0.211051 z"
     id="path361-9-0" /><path
     style="fill:#219e9a;fill-opacity:1;stroke-width:0.119242"
     d="m 128.75353,23.893122 c -0.59079,-0.590756 -0.45088,-0.885282 1.67436,-3.526493 0.95613,-1.18834 1.7981,-2.256139 1.87099,-2.372888 0.1132,-0.181099 -0.11194,-0.499696 -1.53555,-2.171084 -2.32763,-2.733176 -2.541,-3.027223 -2.541,-3.501831 0,-0.793057 1.09307,-1.19328 1.70844,-0.625542 0.16002,0.147566 1.10526,1.247563 2.10084,2.444449 0.99565,1.196883 1.85631,2.176152 1.91262,2.176152 0.0565,0 0.88583,-1.045081 1.84331,-2.322405 0.9575,-1.277333 1.84346,-2.377325 1.9689,-2.444444 0.65112,-0.348516 1.43639,0.09493 1.43565,0.810729 -4.5e-4,0.556773 -0.10404,0.720433 -2.04449,3.240676 -0.88378,1.147684 -1.64666,2.15335 -1.69523,2.234818 -0.056,0.09419 0.5907,0.954482 1.77817,2.364339 1.94125,2.304937 2.19851,2.670615 2.19975,3.127113 0.002,0.591463 -0.83174,1.03548 -1.47797,0.787505 -0.16177,-0.06208 -1.88023,-2.050487 -3.5093,-4.060788 -0.28419,-0.350527 -0.55414,-0.637277 -0.60033,-0.637277 -0.0458,0 -0.85627,0.972711 -1.80024,2.161584 -0.94407,1.188867 -1.8243,2.262035 -1.95607,2.384814 -0.34542,0.321976 -0.97417,0.289228 -1.33285,-0.06952 z"
     id="path1054-8" /><path
     style="fill:#219e9a;fill-opacity:1;stroke-width:0.119242"
     d="m 48.289747,23.901945 -0.33448,-0.287742 -0.0306,-8.464559 -0.0306,-8.4645736 0.31087,-0.369635 0.31131,-0.369634 h 5.82557 5.82548 l 0.33185,0.285467 c 0.43636,0.375406 0.46745,1.127871 0.063,1.532383 l -0.26889,0.268896 -5.00497,0.03367 -5.00489,0.03367 v 2.8580296 2.858037 l 3.30896,5.16e-4 c 3.47462,5.21e-4 4.0721,0.06991 4.37859,0.507462 0.2912,0.4162 0.23305,1.071848 -0.12548,1.408751 l -0.30781,0.289097 -3.6211,0.03454 -3.62101,0.03454 -0.035,3.661741 c -0.0394,3.923953 -0.0555,4.033027 -0.66139,4.309091 -0.457,0.208253 -0.94748,0.148178 -1.30579,-0.160071 z"
     id="path1052-7" /><path
     style="fill:#219e9a;fill-opacity:1;stroke-width:0.119242"
     d="m 117.54836,24.090093 c -1.63681,-0.329627 -3.58673,-1.810521 -4.33443,-3.29177 -0.61737,-1.22294 -0.76936,-1.949021 -0.70438,-3.364939 0.0681,-1.489486 0.34191,-2.329759 1.10763,-3.407536 1.20444,-1.694416 2.82757,-2.612375 4.88645,-2.763464 2.34,-0.171702 4.54343,0.975385 5.89736,3.070242 0.93012,1.439082 1.25602,3.446702 0.6701,4.12831 l -0.28771,0.334568 -2.95221,0.03586 c -3.10954,0.03804 -3.46952,-0.0092 -3.81068,-0.496173 -0.27284,-0.389136 -0.21861,-0.996583 0.11847,-1.333718 0.29033,-0.290234 0.31176,-0.292726 2.55663,-0.292726 1.24524,0 2.29299,-0.04705 2.32846,-0.104452 0.136,-0.219358 -0.6742,-1.567635 -1.2555,-2.090239 -0.83236,-0.748429 -1.71084,-1.072993 -2.90872,-1.074712 -0.78194,-8.87e-4 -1.0768,0.05549 -1.63576,0.314019 -0.89907,0.415894 -1.80003,1.275072 -2.2081,2.10562 -0.29295,0.596921 -0.32968,0.80238 -0.32968,1.863309 0,1.060748 0.0349,1.266464 0.32923,1.863087 0.40795,0.830716 1.31131,1.691926 2.20287,2.100078 0.97436,0.446113 2.4316,0.444155 3.41171,-0.0043 0.37732,-0.172836 0.825,-0.423237 0.99439,-0.556453 0.91087,-0.716511 2.02209,0.126141 1.66212,1.260404 -0.1124,0.352756 -1.24361,1.098233 -2.19211,1.444061 -0.92088,0.335793 -2.57238,0.457417 -3.54657,0.261158 z"
     id="path1050-9" /><path
     style="fill:#219e9a;fill-opacity:1;stroke-width:0.119242"
     d="m 90.609687,24.031286 c -0.20331,-0.08854 -0.41755,-0.260765 -0.47588,-0.382839 -0.059,-0.122074 -0.13423,-1.885349 -0.16702,-3.918408 -0.0564,-3.45295 -0.077,-3.73279 -0.31524,-4.247655 -0.36509,-0.788894 -1.00065,-1.440149 -1.77748,-1.820543 -0.55803,-0.273226 -0.83099,-0.329978 -1.58644,-0.329627 -1.55825,5.19e-4 -2.72215,0.72657 -3.37533,2.105149 l -0.33929,0.715448 -9e-5,3.555266 c -9e-5,2.474046 -0.0393,3.634462 -0.1386,3.815702 -0.21643,0.406362 -0.47737,0.550976 -0.99404,0.550976 -0.51681,0 -0.7777,-0.144591 -0.99413,-0.550976 -0.17577,-0.330589 -0.19238,-6.871625 -0.0219,-7.801845 0.18757,-1.008147 0.80092,-2.09919 1.66912,-2.968311 1.83204,-1.833927 4.38275,-2.267634 6.73719,-1.145526 1.43491,0.683896 2.43092,1.778831 3.0496,3.3523 0.2702,0.687763 0.28245,0.860171 0.32398,4.454727 0.0472,4.153371 0.0219,4.342779 -0.64788,4.622275 -0.47217,0.197234 -0.48227,0.197145 -0.94919,-0.0066 z"
     id="path1044-3" /><path
     id="path1046-2"
     style="fill:#219e9a;fill-opacity:1;stroke-width:0.119242"
     d="m 107.70152,5.8217494 c -0.26952,0.0049 -0.53399,0.13264 -0.74517,0.383743 l -0.30788,0.365896 v 3.092256 c 0,1.7001216 -0.025,3.0900256 -0.0469,3.0900256 -0.0252,0 -0.3604,-0.208017 -0.74516,-0.46183 -1.0835,-0.715129 -2.0878,-0.99453 -3.54962,-0.988361 -0.92317,0.0038 -1.41499,0.06702 -1.99012,0.258803 -2.005573,0.668827 -3.647283,2.360002 -4.230103,4.352809 -0.29381,1.006412 -0.26725,2.731089 0.0603,3.772732 0.63677,2.026247 2.47339,3.775222 4.540213,4.323807 0.85991,0.228281 2.25477,0.231429 3.20828,0.0068 2.00533,-0.472684 3.78627,-2.09932 4.567,-4.16986 0.26719,-0.705119 0.27293,-0.806483 0.30788,-7.023397 l 0.0334,-6.3072236 -0.3235,-0.339121 c -0.23296,-0.242999 -0.50913,-0.361829 -0.77865,-0.356971 z m -5.16714,7.6704036 c 0.91241,0.03926 1.16915,0.09976 1.71793,0.399361 0.88674,0.484128 1.57382,1.184806 1.98788,2.02804 0.30786,0.626878 0.34809,0.835575 0.34581,1.782621 -0.001,0.905267 -0.0487,1.179398 -0.31235,1.744693 -0.58003,1.244559 -1.58405,2.095287 -2.87361,2.438556 -1.47986,0.393948 -3.00573,-0.03552 -4.138643,-1.162386 -0.77884,-0.774418 -1.12728,-1.613621 -1.178,-2.842379 -0.0591,-1.432676 0.23878,-2.191689 1.23825,-3.174806 1.018663,-1.002039 1.742163,-1.276926 3.212733,-1.2137 z" /><path
     id="path409-7-0"
     style="fill:#219e9a;fill-opacity:1;stroke-width:0.119242"
     d="m 69.940727,11.252163 c -1.57707,-0.03512 -3.16977,0.522943 -4.44874,1.713459 -0.87306,0.812658 -1.40618,1.587279 -1.80493,2.623734 -0.22867,0.594043 -0.27546,0.947464 -0.27889,2.086046 -0.007,2.017705 0.45166,3.227121 1.71346,4.508984 1.04433,1.0609 1.91468,1.559905 3.27744,1.878558 0.94218,0.220015 2.52013,0.132728 3.48492,-0.194103 0.40811,-0.138177 1.0643,-0.46083 1.45912,-0.716171 l 0.7184,-0.464062 0.0781,0.486372 c 0.13388,0.837235 0.75997,1.209376 1.5082,0.896889 0.66923,-0.279286 0.71705,-0.604474 0.65147,-4.323807 -0.0646,-3.653102 -0.16557,-4.188377 -1.05306,-5.517424 -1.27516,-1.909562 -3.27781,-2.933329 -5.30547,-2.978475 z m -0.20302,2.108357 c 0.16799,-0.0092 0.33308,-0.0053 0.49083,0.01339 1.60638,0.19026 3.15833,1.34623 3.67903,2.739749 0.39548,1.059089 0.36369,2.427061 -0.0803,3.364448 -0.43277,0.913898 -1.52234,1.946121 -2.35154,2.228834 -2.25747,0.76967 -4.54555,-0.169031 -5.51074,-2.26007 -0.27239,-0.582482 -0.31577,-0.844116 -0.31235,-1.758081 0.004,-1.198604 0.14901,-1.645812 0.82104,-2.561263 0.72218,-0.983807 2.08808,-1.702649 3.26405,-1.767004 z" /></g></svg>
