<?xml version="1.0" encoding="UTF-8" standalone="no"?>
<svg
   xmlns="http://www.w3.org/2000/svg"
   width="235mm"
   height="174mm"
   viewBox="0 0 235 174"
   version="1.1"
   id="svg133">
  <defs
     id="defs127" />
  <g
     id="layer1">
    <path
       d="m 116.72065,172.96254 c -2.10441,-0.16188 -4.42271,-0.88528 -6.47325,-2.0179 -1.35075,-0.74543 -2.34589,-1.44045 -3.92354,-2.73992 -0.51483,-0.42354 -1.21806,-0.98215 -1.57101,-1.24115 -3.82403,-2.83477 -7.607186,-3.36138 -26.967217,-3.75349 -4.250742,-0.0849 -19.722264,-0.32747 -35.694013,-0.55782 -5.927906,-0.0849 -10.824306,-0.17249 -10.880831,-0.19372 -0.07961,-0.0292 2.324669,-0.82823 13.042293,-4.28899 0.97923,-0.31685 2.27956,-0.72022 2.888852,-0.89775 12.98604,-3.76934 30.564087,-4.59173 45.27479,-2.11795 4.05994,0.6828 7.786306,1.59118 10.963086,2.67268 2.08053,0.70854 2.47593,0.86804 6.05873,2.44223 1.43302,0.63 3.1338,1.37623 3.7752,1.65858 0.64486,0.28236 1.81781,0.79984 2.61659,1.1504 l 1.44628,0.63742 1.2101,-0.42274 c 0.66609,-0.23353 3.72159,-1.30165 6.79037,-2.37562 3.06983,-1.07397 6.02556,-2.08795 6.5717,-2.25328 11.3171,-3.43117 28.01252,-4.77255 43.69713,-3.51073 6.59294,0.53021 12.74774,1.56411 17.672,2.96833 0.86246,0.2468 3.63349,1.13659 10.25243,3.2957 0.64485,0.20964 1.59755,0.52093 2.12033,0.69103 0.65016,0.2123 0.91819,0.32322 0.84654,0.35029 -0.0531,0.0246 -2.39366,0.0663 -5.18937,0.1035 -2.79358,0.0292 -7.59286,0.10084 -10.66137,0.15126 -3.06984,0.0531 -9.19332,0.13799 -13.61152,0.20168 -20.54148,0.30093 -26.19021,0.42115 -31.28352,0.67511 -7.69051,0.38294 -11.0151,1.02142 -13.63195,2.61764 -0.70058,0.42884 -1.44363,0.97737 -2.60862,1.93563 -1.13844,0.93571 -1.68246,1.34783 -2.48389,1.88283 -3.29646,2.20286 -6.78771,3.2022 -10.25428,2.93476 z M 4.8709119,163.3813 c -0.666088,-0.0823 -1.52059,-0.31368 -1.995609,-0.54349 -0.459094,-0.22026 -0.939418,-0.56312 -1.032296,-0.73322 -0.4113326,-0.77304 -0.8226586,-13.40135 -1.05618964,-32.66075 -0.159224,-13.50861 -0.185757,-20.4107 -0.212296,-63.165589 l -0.02652,-45.55249 5.86235864,0.01685 5.8623581,0.01685 0.02652,45.01183 c 0.01409,24.756475 0.05304,45.721509 0.05304,46.588929 0.01409,0.86751 0.05311,3.64098 0.07961,6.16319 0.238836,19.18864 0.84654,30.6668 1.679812,32.09666 0.159224,0.27015 0.445828,0.34419 1.135796,0.30093 2.536969,-0.15657 8.474428,-2.02798 15.493813,-4.88148 2.507776,-1.0201 3.532912,-1.4155 5.141073,-1.98552 7.468134,-2.6479 15.489571,-4.45997 23.39663,-5.28592 3.665863,-0.38293 5.457393,-0.47104 9.580761,-0.47104 4.146192,0 5.79124,0.0849 8.938299,0.47104 7.549601,0.92031 13.588433,2.99625 17.671732,6.075 1.43036,1.07848 1.76739,1.60551 1.2101,1.8884 -0.48829,0.2468 -0.79612,0.27333 -3.43128,0.26696 -2.605959,-0.004 -3.532642,-0.0531 -9.405352,-0.43202 -4.075862,-0.26724 -4.701349,-0.29483 -7.886356,-0.33145 -15.005259,-0.1778 -29.833782,2.48707 -43.260073,7.77787 -2.839758,1.11828 -4.643765,1.92582 -8.002327,3.57821 -3.139894,1.54474 -4.702942,2.24957 -6.835216,3.08271 -3.579087,1.39798 -6.553387,2.22728 -9.4435651,2.63224 -0.766934,0.10615 -2.977753,0.15657 -3.592887,0.0823 z M 227.17771,162.79747 c -2.42285,-0.37205 -5.78168,-1.42929 -8.98182,-2.82649 -0.41663,-0.18045 -2.11237,-1.00788 -3.76803,-1.83425 -4.30249,-2.14926 -6.91669,-3.28694 -10.48596,-4.56331 -9.59615,-3.43143 -19.61532,-5.10214 -32.97765,-5.49906 -2.82755,-0.0823 -10.54725,-0.0425 -14.60455,0.0849 -9.12379,0.28235 -14.91477,0.24149 -17.01068,-0.11146 -0.58648,-0.0982 -1.12253,-0.28554 -1.2791,-0.44476 -0.38744,-0.38798 0.18576,-1.02142 1.83107,-1.99004 3.64889,-2.15934 11.97789,-4.92968 19.35234,-6.43713 5.43059,-1.11005 8.57209,-1.31625 13.37773,-0.87891 7.94792,0.7234 18.00371,3.18285 27.47806,6.72089 2.58474,0.96569 4.52939,1.76181 7.40232,3.03279 6.16701,2.72793 11.22582,4.473 13.39445,4.61967 0.58647,0.0425 0.80142,-0.0246 0.88899,-0.25476 0.61302,-1.59913 1.16765,-15.72041 1.45425,-37.05318 0.15923,-10.81632 0.15923,-20.250627 0.15923,-56.421516 l 2.6e-4,-38.457875 0.23883,0.02921 c 0.31845,0.04247 10.38592,1.199751 10.45146,1.199751 0.0265,0 0.0265,31.670847 0.0265,70.379596 l -0.0141,70.379504 -2.33529,0.21495 c -2.65532,0.24149 -3.57298,0.26697 -4.62943,0.10084 z m -105.40117,-82.377808 0.001,-69.069239 5.78593,-2.0155097 c 3.18182,-1.108462 5.81088,-2.024268 5.84112,-2.035145 0.0265,-0.0085 0.0531,3.1361497 0.0531,8.2662417 10e-4,10.328798 0.0531,14.01316 0.32376,17.837241 0.18576,2.906602 0.45113,4.62861 0.72447,4.875857 0.0796,0.08227 0.13268,0.08227 0.35825,5.82e-4 0.97127,-0.341796 3.36095,-1.923951 7.06423,-4.673246 1.87885,-1.39586 2.8456,-2.076546 3.93097,-2.766327 2.02215,-1.287589 3.63297,-2.104674 4.43598,-2.250631 0.64221,-0.116766 2.22648,0.832478 4.1929,2.509632 0.36887,0.313675 1.4569,1.364286 2.42286,2.332632 0.9633,0.968084 2.01683,1.995871 2.33528,2.283801 1.89742,1.700509 3.59952,2.81022 3.99042,2.600922 0.50951,-0.273331 0.98187,-3.353654 1.26848,-8.242964 0.2123,-3.620726 0.2123,-4.306428 0.23883,-16.547083 l 0.0265,-12.3117454 5.29738,5.58e-4 c 5.27137,6.1e-4 6.8936,0.03184 9.06541,0.209644 7.78075,0.60797 16.12646,2.643913 26.87275,6.5551677 1.40913,0.512436 7.77676,2.8599547 9.09885,3.3538907 l 0.48297,0.177801 v 65.947123 c 0,36.270765 -0.0265,65.947045 -0.0531,65.947045 -0.0265,0 -2.91353,-1.17188 -6.41168,-2.60383 -3.49894,-1.43222 -6.80894,-2.77003 -7.35482,-2.97293 -7.07564,-2.62932 -17.39255,-4.59876 -27.69062,-5.28525 -3.23252,-0.21495 -4.59679,-0.25741 -8.00339,-0.25741 -3.30841,-6.4e-4 -4.72258,0.0425 -7.12713,0.23087 -3.62155,0.27944 -6.88988,0.79984 -9.34697,1.48848 -3.74654,1.04955 -9.84508,3.89501 -15.13052,7.06004 -1.36667,0.81894 -2.66488,1.6753 -8.52962,5.62243 -2.21587,1.493 -4.06366,2.73409 -4.10347,2.75896 -0.0531,0.0292 -0.0531,-13.88549 -0.0531,-69.024028 z m -10.89596,66.103668 c -3.13034,-2.46611 -4.46703,-3.50051 -5.52056,-4.26696 -7.461487,-5.42778 -14.938375,-8.51219 -23.893394,-9.85665 -4.425365,-0.66423 -8.250983,-0.91049 -14.137222,-0.9097 -16.536994,0.002 -23.719053,1.48291 -41.44837,8.54396 -2.550234,1.01585 -2.836572,1.11722 -3.165369,1.11987 -0.427251,0.003 -0.591782,-0.0929 -0.881039,-0.51694 -0.599743,-0.88104 -0.97392,-3.41302 -1.183564,-7.97978 -0.318448,-6.75175 -0.350293,-22.23848 -0.132687,-50.006458 0.02654,-3.55042 0.159224,-20.861398 0.275988,-38.46892 C 20.92705,26.574346 21.033199,11.711726 21.070351,11.1537 l 0.02654,-1.01452 4.64403,-1.6309867 C 37.047674,4.5369136 37.221229,4.4782396 39.995173,3.7071186 c 14.939446,-4.15367397 32.165882,-4.65764367 47.990879,-1.403824 5.626702,1.156761 11.483751,2.9529667 17.412188,5.3397567 4.14831,1.669992 7.28237,3.3189987 7.64647,4.0230327 0.15922,0.341797 0.27598,2.612069 0.38743,8.973352 0.0796,5.351651 0.13269,35.599221 0.0531,47.786712 -0.0531,12.899834 -0.58382,79.392312 -0.60505,79.579402 -0.0141,0.11145 -0.31845,-0.0982 -2.06195,-1.48185 z"
       id="path361-9-0" />
  </g>
</svg>
